<?xml version="1.0" encoding="utf-8"?>
<!-- Generator: Adobe Illustrator 24.0.1, SVG Export Plug-In . SVG Version: 6.00 Build 0)  -->
<svg version="1.1" id="Calque_1" xmlns="http://www.w3.org/2000/svg" xmlns:xlink="http://www.w3.org/1999/xlink" x="0px" y="0px"
	 viewBox="0 0 384 384" style="enable-background:new 0 0 384 384;" xml:space="preserve">
<style type="text/css">
	.st0{fill:#FFFFFF;}
</style>
<path class="st0" d="M384,49.5c0,94.75,0,189.5,0,284.25c-0.24,0.94-0.53,1.87-0.72,2.82c-4.61,23.48-18.39,38.64-41.27,45.56
	c-2.47,0.75-5.01,1.25-7.51,1.87c-95,0-190,0-285,0c-0.68-0.24-1.34-0.57-2.04-0.71c-23.5-4.59-38.66-18.41-45.61-41.27
	c-0.75-2.47-1.24-5.01-1.86-7.52c0-95,0-190,0-285c0.24-0.68,0.57-1.34,0.7-2.04C5.28,23.94,19.13,8.81,41.97,1.85
	C44.44,1.1,46.99,0.61,49.5,0c95,0,190,0,285,0c0.68,0.24,1.34,0.57,2.04,0.71c23.51,4.58,38.66,18.41,45.6,41.28
	C382.89,44.45,383.39,46.99,384,49.5z M22.5,192.01c0,44.37,0,88.74,0.01,133.11c0,2.37-0.04,4.77,0.33,7.1
	c2.82,17.75,16.48,29.27,34.75,29.27c89.24,0.02,178.48,0.01,267.72,0.01c22.09,0,36.19-14.18,36.19-36.4c0-88.74,0-177.48,0-266.22
	c0-22.22-14.09-36.37-36.22-36.38c-88.87,0-177.73,0-266.6,0c-21.98,0-36.18,14.14-36.19,36.03
	C22.49,103.02,22.5,147.51,22.5,192.01z"/>
<path class="st0" d="M0,334.5c0.61,2.51,1.11,5.06,1.86,7.52c6.95,22.86,22.11,36.67,45.61,41.27c0.7,0.14,1.36,0.47,2.04,0.71
	c-16.44,0-32.88,0-49.5,0C0,367.5,0,351,0,334.5z"/>
<path class="st0" d="M334.5,384c2.51-0.62,5.05-1.12,7.51-1.87c22.87-6.92,36.66-22.09,41.27-45.56c0.19-0.95,0.48-1.88,0.72-2.82
	c0,16.75,0,33.5,0,50.25C367.5,384,351,384,334.5,384z"/>
<path class="st0" d="M384,49.5c-0.61-2.51-1.11-5.05-1.86-7.52c-6.94-22.87-22.08-36.7-45.6-41.28c-0.7-0.14-1.36-0.47-2.04-0.71
	c16.5,0,33,0,49.5,0C384,16.5,384,33,384,49.5z"/>
<path class="st0" d="M49.5,0c-2.51,0.61-5.06,1.1-7.53,1.85C19.13,8.81,5.28,23.94,0.7,47.46c-0.14,0.7-0.47,1.36-0.7,2.04
	C0,33,0,16.5,0,0C16.5,0,33,0,49.5,0z"/>
<path class="st0" d="M192.07,293.24c-55.84,0.04-101.38-45.53-101.31-101.37c0.07-55.7,45.47-101.08,101.17-101.12
	c55.86-0.04,101.38,45.5,101.31,101.36C293.18,247.82,247.77,293.21,192.07,293.24z M192.04,113.25
	c-43.36-0.02-78.74,35.27-78.79,78.61c-0.06,43.37,35.19,78.79,78.51,78.89c43.52,0.11,79.01-35.29,78.99-78.8
	C270.73,148.59,235.41,113.27,192.04,113.25z"/>
<path class="st0" d="M338.23,79.42c0.04,18.65-15.19,33.87-33.84,33.82c-18.46-0.05-33.6-15.19-33.63-33.66
	c-0.03-18.64,15.2-33.86,33.84-33.82C323.09,45.81,338.2,60.93,338.23,79.42z M304.42,68.26c-6.07,0.05-11.15,5.16-11.16,11.23
	c0,6.07,5.07,11.2,11.13,11.25c6.21,0.06,11.44-5.2,11.34-11.42C315.64,73.25,310.49,68.21,304.42,68.26z"/>
</svg>
